<svg width="60" height="60" viewBox="0 0 60 60" fill="none" xmlns="http://www.w3.org/2000/svg">
<g clip-path="url(#clip0)">
<path d="M53.2353 57.7511C52.9313 53.9603 50.0003 51.5831 48.28 50.5028C47.7394 50.1636 47.0866 50.0872 46.4892 50.2936C46.2617 50.3724 46.036 50.4493 45.8117 50.5257L40.1496 42.1289C40.1171 42.0809 40.1048 42.0232 40.1144 41.966L40.6001 39.1269C40.682 38.6485 40.3602 38.1944 39.8818 38.1125C39.4025 38.0306 38.9494 38.3524 38.8674 38.8307L38.5255 40.8293C38.525 40.8316 38.5246 40.8335 38.5241 40.8357C38.5099 40.92 38.4586 40.9662 38.4184 40.9905C38.3776 41.0147 38.3131 41.0376 38.2316 41.0106L30.1877 38.3135C30.0564 38.2695 29.968 38.1473 29.968 38.0095V33.6923C31.5166 34.1876 33.166 34.4563 34.8766 34.4563C36.5539 34.4563 38.1895 34.2023 39.7422 33.7138L39.5165 35.0327C39.435 35.511 39.7564 35.9651 40.2348 36.0471C40.2851 36.0553 40.335 36.0594 40.384 36.0594C40.8042 36.0594 41.1759 35.7568 41.2492 35.3288L41.6515 32.975C43.4034 32.1643 45.0129 31.0336 46.4073 29.6104C46.7474 29.2639 46.7419 28.7073 46.3949 28.3676C46.0484 28.0279 45.4917 28.0334 45.1521 28.38C42.4229 31.165 38.7736 32.6985 34.8766 32.6985C26.9431 32.6985 20.4886 26.244 20.4886 18.3105C20.4886 15.5612 21.2664 12.8892 22.7376 10.5834C23.7319 9.02475 25.009 7.68029 26.4963 6.6137C26.3654 7.15478 26.2853 7.71417 26.2638 8.28729C26.1878 10.3056 26.8236 12.2932 28.0532 13.8839C29.3711 15.5882 30.2614 17.5698 30.6565 19.6623C30.0733 20.0193 29.6824 20.6602 29.6824 21.3926V26.1113C29.6824 27.2305 30.5929 28.141 31.7121 28.141H38.0412C39.1604 28.141 40.0709 27.2305 40.0709 26.1113V21.3926C40.0709 20.6616 39.6809 20.0212 39.099 19.6637C39.4991 17.5877 40.4014 15.5886 41.7371 13.8349C42.8875 12.3252 43.4959 10.5216 43.4959 8.61871C43.4959 7.93435 43.4149 7.26464 43.262 6.61691C44.747 7.6835 46.0227 9.02658 47.0161 10.5834C48.4873 12.8897 49.2646 15.5616 49.2646 18.3105C49.2646 20.8314 48.6036 23.3116 47.3525 25.4823C47.1104 25.903 47.255 26.4404 47.6753 26.6826C47.8135 26.7622 47.9646 26.8002 48.1134 26.8002C48.4173 26.8002 48.713 26.6423 48.8755 26.3598C50.28 23.9227 51.0224 21.139 51.0224 18.3105C51.0224 15.2261 50.1495 12.2273 48.4979 9.63815C46.9136 7.15432 44.6874 5.15526 42.0558 3.84697C41.7051 3.32192 41.2949 2.83028 40.8253 2.38212C39.1045 0.740122 36.8464 -0.102623 34.4614 0.00998742C31.6682 0.141366 29.2058 1.63597 27.725 3.83278C27.3171 4.03466 26.9193 4.25392 26.5311 4.4883C26.5123 4.48738 26.4936 4.48555 26.4744 4.48555H15.1753C14.6897 4.48555 14.2964 4.87923 14.2964 5.36446C14.2964 5.85015 14.6897 6.24337 15.1753 6.24337H24.1485C23.0384 7.23123 22.0633 8.37152 21.2554 9.63815C19.6276 12.1902 18.7578 15.14 18.7331 18.1782H14.1742C11.0756 18.1782 8.55469 15.6573 8.55469 12.5587V6.56381C8.55469 6.38711 8.69843 6.24337 8.87513 6.24337H11.3475C11.8332 6.24337 12.2264 5.84969 12.2264 5.36446C12.2264 4.87923 11.8332 4.48555 11.3475 4.48555H8.87513C7.72888 4.48555 6.79688 5.41802 6.79688 6.56381V12.5587C6.79688 16.0784 9.27521 19.0287 12.5784 19.7602C9.13422 25.0841 9.01749 32.6331 9.12964 35.6529C9.17084 36.7749 10.0832 37.6543 11.2065 37.6543H14.4209V45.5155C14.4209 46.6498 15.3438 47.5823 16.4786 47.5937L22.696 47.656L26.89 54.9546C26.7476 54.9646 26.6318 54.9715 26.5439 54.9756C25.4393 55.031 24.5742 55.9424 24.5742 57.0507V57.9218C24.5742 59.0676 25.5062 60.0001 26.6524 60.0001H51.1634C51.7416 60.0001 52.2973 59.7565 52.6892 59.3322C53.0824 58.9065 53.2815 58.3301 53.2353 57.7511ZM35.187 15.639C35.187 15.731 35.0515 15.8377 34.8766 15.8377C34.7018 15.8377 34.5663 15.731 34.5663 15.639V15.1927C34.6679 15.2073 34.7709 15.2174 34.8766 15.2174C34.9824 15.2174 35.0854 15.2073 35.187 15.1927V15.639ZM34.5663 17.5708C34.6679 17.5854 34.7709 17.5955 34.8766 17.5955C34.9824 17.5955 35.0854 17.5854 35.187 17.5708V19.3634H34.5663V17.5708ZM31.4397 23.4805H38.3131V24.0243H31.4397V23.4805ZM38.3131 21.3931V21.7227H31.4402V21.3931C31.4402 21.3688 31.4443 21.3455 31.4503 21.3231C31.5208 21.3409 31.594 21.3514 31.6695 21.3514H38.0837C38.1593 21.3514 38.2325 21.3409 38.303 21.3226C38.3089 21.3455 38.3131 21.3684 38.3131 21.3931ZM38.0412 26.3832H31.7116C31.562 26.3832 31.4397 26.2614 31.4397 26.1113V25.7821H38.3131V26.1113C38.3131 26.2614 38.1913 26.3832 38.0412 26.3832ZM34.5438 1.76552C36.4431 1.67625 38.2421 2.34688 39.6122 3.6538C40.9827 4.96163 41.7381 6.72494 41.7381 8.61917C41.7381 10.1335 41.2542 11.5685 40.3391 12.7702C38.8317 14.7482 37.8168 17.01 37.3687 19.3634H36.9448V12.7043C36.9448 12.219 36.5511 11.8254 36.0659 11.8254C35.5802 11.8254 35.187 12.219 35.187 12.7043V13.2604C35.187 13.3525 35.0515 13.4591 34.8766 13.4591C34.7018 13.4591 34.5663 13.3525 34.5663 13.2604V12.7043C34.5663 12.219 34.173 11.8254 33.6874 11.8254C33.2021 11.8254 32.8084 12.219 32.8084 12.7043V19.3634H32.3873C31.9433 16.9889 30.9371 14.7404 29.4443 12.8091C28.4656 11.5434 27.9598 9.96088 28.0202 8.35367C28.153 4.82522 31.0186 1.93168 34.5438 1.76552ZM23.969 46.3445C23.8138 46.0744 23.5273 45.9064 23.216 45.9032L16.496 45.8359C16.3211 45.8341 16.1788 45.6903 16.1788 45.5155V42.6581H16.192C17.7672 42.6581 20.8855 42.4242 22.7353 40.724C23.7195 39.819 24.2189 38.643 24.2189 37.2281C24.2189 36.7429 23.8253 36.3492 23.34 36.3492C22.8548 36.3492 22.4611 36.7429 22.4611 37.2281C22.4611 38.1423 22.1622 38.8619 21.5479 39.4277C20.7756 40.139 19.4847 40.6165 17.8148 40.8083C17.1872 40.8806 16.6132 40.8989 16.1788 40.8989V36.7754C16.1788 36.2901 15.7855 35.8965 15.2999 35.8965H11.2065C11.033 35.8965 10.8925 35.761 10.8861 35.5875C10.5657 26.9449 13.0577 22.2111 14.144 20.5764C14.2781 20.375 14.4388 20.1594 14.621 19.936H18.8123C19.3973 25.7629 23.0938 30.6857 28.2102 33.0148V38.0095C28.2102 38.9031 28.7801 39.695 29.6284 39.9802L37.6731 42.6773C37.8786 42.7464 38.0915 42.7803 38.3035 42.7803C38.3717 42.7803 38.4399 42.7757 38.5072 42.7689C38.5575 42.8879 38.6189 43.0028 38.6926 43.1117L44.0791 51.1007C36.7466 53.476 31.6022 54.4002 28.8048 54.7587L23.969 46.3445ZM51.3974 58.1397C51.3621 58.1782 51.2847 58.2422 51.1634 58.2422H26.6524C26.4757 58.2422 26.332 58.0985 26.332 57.9218V57.0507C26.332 56.8799 26.4638 56.7399 26.6318 56.7316C33.8068 56.3714 44.0846 52.9848 47.0632 51.9553C47.1553 51.9233 47.2578 51.9365 47.3457 51.9915C48.7867 52.8965 51.2403 54.8658 51.483 57.8911C51.493 58.0166 51.434 58.1008 51.3974 58.1397Z" fill="#031E32"/>
<path d="M19.4057 27.0561C18.9704 26.8419 18.4431 27.0208 18.2288 27.4566C18.1652 27.5862 18.0187 27.7249 17.799 27.7249C17.5793 27.7249 17.4328 27.5862 17.3687 27.4566C17.1545 27.0213 16.6276 26.8419 16.1922 27.0561C15.7564 27.2703 15.5775 27.7972 15.7917 28.233C16.1712 29.0039 16.9402 29.4827 17.799 29.4827C18.6573 29.4827 19.4263 29.0039 19.8058 28.233C20.0205 27.7972 19.8411 27.2703 19.4057 27.0561Z" fill="#031E32"/>
</g>
<defs>
<clipPath id="clip0">
<rect width="60" height="60" fill="white"/>
</clipPath>
</defs>
</svg>
