<svg width="18" height="18" viewBox="0 0 18 18" fill="none" xmlns="http://www.w3.org/2000/svg">
<path d="M9 18C13.9706 18 18 13.9706 18 9C18 4.02944 13.9706 0 9 0C4.02944 0 0 4.02944 0 9C0 13.9706 4.02944 18 9 18Z" fill="#00AAE4"/>
<path d="M12.375 10.2375C11.9813 10.0125 11.5313 9.95624 11.1375 9.89999C10.8 9.89999 10.2375 9.67499 10.2375 8.99999C10.2375 8.49374 10.6313 8.09999 11.1375 8.04374C11.5875 8.04374 11.9813 7.98749 12.375 7.70624C13.3313 7.14374 13.7813 5.96249 13.3875 4.89374C12.9938 3.82499 11.925 3.20624 10.8563 3.37499C9.78751 3.59999 8.94376 4.55624 8.94376 5.68124C8.94376 6.13124 9.11251 6.58124 9.28126 6.91874C9.45001 7.25624 9.56251 7.87499 8.94376 8.21249C8.49376 8.49374 7.98751 8.32499 7.70626 7.87499C7.48126 7.48124 7.20001 7.14374 6.80626 6.91874C5.85001 6.35624 4.61251 6.58124 3.88126 7.42499C3.15001 8.32499 3.15001 9.56249 3.88126 10.4625C4.61251 11.3625 5.79376 11.5312 6.80626 10.9687C7.20001 10.7437 7.48126 10.4062 7.70626 10.0125C7.87501 9.73124 8.38126 9.33749 8.94376 9.67499C9.39376 9.95624 9.50626 10.5187 9.28126 10.9687C9.05626 11.3625 8.94376 11.7562 8.94376 12.2062C8.94376 13.3312 9.73126 14.3437 10.8563 14.5125C11.925 14.7375 13.05 14.0625 13.3875 12.9937C13.725 11.9812 13.3313 10.8 12.375 10.2375Z" fill="white"/>
</svg>
