<svg   id="icon--reload-sharp" viewBox="0 0 24 24" fill="#000000" xmlns="http://www.w3.org/2000/svg">
<path d="M18.75 6.93751L17.76 5.78579C16.9206 4.90415 15.9106 4.20252 14.7914 3.7236C13.6722 3.24468 12.4673 2.99849 11.25 3.00001C6.28125 3.00001 2.25 7.03126 2.25 12C2.25 16.9688 6.28125 21 11.25 21C13.1114 20.9999 14.927 20.4229 16.447 19.3484C17.967 18.2739 19.1166 16.7548 19.7377 15" stroke="#000000" stroke-width="0.75" stroke-miterlimit="10" stroke-linecap="square"/>
<path d="M21.7498 3.20718V10.3111C21.7498 10.3608 21.7301 10.4085 21.6949 10.4437C21.6597 10.4788 21.612 10.4986 21.5623 10.4986H14.4584C14.4213 10.4986 14.385 10.4876 14.3542 10.467C14.3233 10.4464 14.2992 10.4171 14.285 10.3829C14.2708 10.3486 14.2671 10.3109 14.2744 10.2745C14.2816 10.2381 14.2995 10.2047 14.3257 10.1784L21.4297 3.07452C21.4559 3.04827 21.4893 3.03039 21.5257 3.02314C21.5621 3.0159 21.5998 3.01961 21.6341 3.03381C21.6684 3.04802 21.6977 3.07207 21.7183 3.10293C21.7389 3.13379 21.7498 3.17007 21.7498 3.20718Z" fill="#000000"/>
</svg>
