<svg  id="icon--ltc" viewBox="0 0 18 18" fill="none" xmlns="http://www.w3.org/2000/svg">
<path d="M9 17C13.4183 17 17 13.4183 17 9C17 4.58172 13.4183 1 9 1C4.58172 1 1 4.58172 1 9C1 13.4183 4.58172 17 9 17Z" fill="white"/>
<path fill-rule="evenodd" clip-rule="evenodd" d="M8.58714 5H8.39157L8.33513 5.16598L7.092 8.82144L6.45069 9.03667L6.3185 9.08105L6.28717 9.20322L6.1086 9.90019L6 10.3242L6.45864 10.17L6.65589 10.1037L6.11329 11.6993L6.011 12H6.3653H11.1788H11.3659L11.4274 11.8433L11.8783 10.6947L12 10.3847H11.6297H8.69132L9.04304 9.30127L9.71814 9.07433L9.83844 9.03391L9.87634 8.9249L10.1265 8.20577L10.285 7.74993L9.78168 7.91881L9.4564 8.02801L10.3427 5.29787L10.4394 5H10.0897H8.58714ZM8.84162 8.23433L9.74004 5.46667H8.78271L7.71267 8.61317L8.84162 8.23433ZM7.5211 9.17643L8.65979 8.79428L8.60999 8.94777L7.46835 9.33151L7.5211 9.17643ZM6.90042 9.38471L6.76923 9.42876L6.73059 9.57949L6.84757 9.5402L6.90042 9.38471ZM7.27672 9.89501L6.71959 11.5333H10.9917L11.2594 10.8513H8.34166H7.992L8.08871 10.5535L8.4281 9.508L7.27672 9.89501ZM9.22492 8.74103L9.27457 8.58797L9.46482 8.52413L9.41118 8.67845L9.22492 8.74103Z" fill="white"/>
<defs>
<linearGradient id="paint0_linear" x1="33.8796" y1="32.5314" x2="32.0815" y2="-9.15853" gradientUnits="userSpaceOnUse">
<stop stop-color="#535353"/>
<stop offset="0.463529" stop-color="#7F7F7F"/>
<stop offset="1" stop-color="#B5B5B5"/>
</linearGradient>
</defs>
</svg>
